<?xml version="1.0" standalone="no"?>
<!DOCTYPE svg PUBLIC "-//W3C//DTD SVG 20010904//EN"
 "http://www.w3.org/TR/2001/REC-SVG-20010904/DTD/svg10.dtd">
<svg version="1.0" xmlns="http://www.w3.org/2000/svg"
 width="813.000000pt" height="307.000000pt" viewBox="0 0 813.000000 307.000000"
 preserveAspectRatio="xMidYMid meet">

<g transform="translate(0.000000,307.000000) scale(0.100000,-0.100000)"
fill="#000000" stroke="none">
<path d="M5264 2975 c-65 -32 -122 -92 -348 -364 -189 -229 -324 -413 -498
-681 -44 -67 -148 -239 -148 -244 0 -2 -18 -33 -40 -69 -55 -91 -156 -296
-226 -457 -71 -167 -87 -191 -222 -340 -59 -65 -183 -170 -200 -170 -36 0 -41
84 -11 173 33 100 181 375 292 542 113 171 133 252 82 328 -31 45 -91 77 -145
77 -126 0 -214 -105 -422 -505 -137 -262 -217 -375 -361 -512 -89 -85 -131
-110 -153 -92 -19 15 -18 35 5 106 28 88 104 234 240 460 142 238 156 268 155
348 0 133 -100 218 -237 202 -66 -8 -156 -52 -255 -126 -79 -59 -334 -308
-496 -484 -49 -53 -91 -95 -94 -92 -4 4 4 24 52 125 32 65 140 260 204 365
144 238 439 622 596 774 l46 45 202 0 c192 1 206 2 251 24 178 88 158 339 -32
392 -54 15 -3093 14 -3163 -1 -119 -26 -190 -163 -143 -277 20 -47 50 -78 100
-105 40 -22 45 -22 757 -25 395 -1 718 -6 718 -10 -1 -4 -21 -29 -46 -57 -132
-145 -380 -470 -531 -695 -226 -338 -355 -562 -583 -1011 -134 -265 -149 -309
-130 -372 40 -135 183 -187 307 -111 53 32 64 52 267 474 237 490 575 1007
893 1364 59 66 173 187 252 269 l144 147 95 0 c72 0 93 -3 89 -13 -4 -10 -132
-210 -302 -472 -18 -27 -67 -110 -110 -184 -271 -474 -475 -982 -475 -1187 0
-175 197 -257 317 -131 17 17 59 82 94 142 131 232 269 415 464 613 133 137
293 282 310 282 5 0 1 -8 -7 -17 -32 -37 -222 -401 -272 -521 -74 -176 -89
-239 -84 -348 3 -76 7 -95 31 -131 56 -87 179 -115 300 -69 77 29 125 59 254
163 51 40 95 73 98 73 3 0 5 -15 5 -32 0 -40 49 -145 81 -175 58 -53 142 -66
240 -37 74 22 125 53 245 150 57 46 106 84 108 84 2 0 13 -31 25 -68 39 -129
102 -182 214 -182 142 0 322 107 565 334 l52 49 0 -74 c0 -96 20 -169 60 -219
62 -78 157 -105 269 -76 108 28 175 71 310 201 68 66 121 111 117 100 -15 -38
-18 -120 -7 -161 13 -48 70 -109 126 -135 53 -24 141 -24 210 0 71 25 186 98
253 159 29 27 54 46 57 44 3 -3 5 -20 5 -39 0 -92 81 -173 173 -173 92 0 155
44 207 142 107 204 243 397 380 543 131 140 346 342 355 333 2 -2 -12 -31 -31
-63 -94 -156 -197 -373 -251 -527 -30 -87 -36 -117 -37 -194 -1 -84 1 -94 29
-139 75 -119 248 -133 415 -32 111 66 333 282 440 426 116 156 206 287 229
331 45 86 16 168 -55 157 -51 -8 -88 -40 -135 -115 -122 -194 -320 -425 -435
-508 -30 -22 -89 -54 -99 -54 -12 0 -3 50 25 128 38 109 112 247 243 454 152
242 177 335 120 449 -50 98 -161 131 -263 78 -56 -28 -145 -89 -186 -126 -17
-15 -54 -46 -82 -68 -67 -52 -261 -250 -386 -393 -55 -62 -101 -111 -103 -109
-6 6 91 170 160 272 136 200 158 265 118 347 -28 60 -73 91 -136 96 -132 11
-225 -98 -428 -503 -78 -154 -112 -211 -184 -300 -154 -193 -308 -332 -343
-310 -6 3 -10 26 -10 49 0 82 94 275 280 571 62 99 123 203 136 230 63 134 -4
264 -138 266 -71 2 -114 -19 -172 -81 l-48 -52 -32 30 c-17 16 -58 42 -91 58
-58 28 -65 29 -210 29 l-150 0 -67 -34 c-74 -36 -188 -128 -257 -207 -45 -51
-142 -180 -264 -350 -124 -174 -151 -206 -283 -334 -129 -125 -206 -179 -238
-167 -68 26 -27 213 109 492 118 241 273 489 474 755 176 234 249 318 478 549
177 178 205 211 224 260 37 100 12 188 -69 246 -35 24 -55 30 -110 33 -57 3
-75 -1 -118 -23z m402 -1507 c24 -11 26 -16 22 -58 -10 -102 -211 -422 -359
-572 -92 -93 -186 -158 -227 -158 -46 0 -53 63 -21 179 43 152 155 335 289
471 131 133 218 173 296 138z"/>
<path d="M4145 2496 c-49 -21 -91 -63 -150 -146 -86 -122 -102 -187 -65 -259
26 -52 62 -79 115 -87 74 -11 141 32 239 151 95 116 120 216 73 286 -41 62
-138 87 -212 55z"/>
</g>
</svg>
